<!--?xml version="1.0" encoding="UTF-8" standalone="no"?-->
<!-- Created with Inkscape (http://www.inkscape.org/) -->

<svg xmlns:dc="http://purl.org/dc/elements/1.1/" xmlns:cc="http://creativecommons.org/ns#" xmlns:rdf="http://www.w3.org/1999/02/22-rdf-syntax-ns#" xmlns:svg="http://www.w3.org/2000/svg" xmlns="http://www.w3.org/2000/svg" xmlns:sodipodi="http://sodipodi.sourceforge.net/DTD/sodipodi-0.dtd" xmlns:inkscape="http://www.inkscape.org/namespaces/inkscape" id="svg3519" version="1.1" inkscape:version="0.91 r13725" width="460.3125" height="552.1875" viewBox="0 0 460.3125 552.1875" sodipodi:docname="face.svg" class="">
  <metadata id="metadata3525">
    <rdf:rdf>
      <cc:work rdf:about="">
        <dc:format>image/svg+xml</dc:format>
        <dc:type rdf:resource="http://purl.org/dc/dcmitype/StillImage"></dc:type>
        <dc:title></dc:title>
      </cc:work>
    </rdf:rdf>
  </metadata>
  <defs id="defs3523"></defs>
  <sodipodi:namedview pagecolor="#ffffff" bordercolor="#666666" borderopacity="1" objecttolerance="10" gridtolerance="10" guidetolerance="10" inkscape:pageopacity="0" inkscape:pageshadow="2" inkscape:window-width="1920" inkscape:window-height="1018" id="namedview3521" showgrid="false" inkscape:zoom="0.85478212" inkscape:cx="298.36037" inkscape:cy="254.83157" inkscape:window-x="-8" inkscape:window-y="-8" inkscape:window-maximized="1" inkscape:current-layer="svg3519"></sodipodi:namedview>
  <g inkscape:groupmode="layer" id="layer1" inkscape:label="Layer 1"></g>
  <g id="g3588">
    <path inkscape:connector-curvature="0" id="path3532" d="m 84.231992,225.78853 c 25.960918,-5.19218 11.583045,-3.50966 43.285888,-3.50966 5.06951,0 10.13903,0 15.20855,0 0.38996,0 0.89414,-0.27575 1.16989,0 3.42134,3.42134 2.33978,4.4759 2.33978,9.35911 0,4.3361 -0.68177,9.96502 1.16989,14.03866 1.16364,2.56001 2.81132,4.91757 4.67955,7.01933 4.88363,5.49409 16.65251,8.51596 23.39778,9.35911 3.46707,0.43339 7.95265,0 11.69888,0" style="fill:none;fill-rule:evenodd;stroke:#000000;stroke-width:1px;stroke-linecap:butt;stroke-linejoin:miter;stroke-opacity:1" class="tOTHcHGj_0"></path>
    <path inkscape:connector-curvature="0" id="path3534" d="m 57.32455,201.22087 c 1.608449,-5.36033 2.155488,-10.96173 3.509666,-16.37844 0.598176,-2.39271 1.662221,-4.64789 2.339778,-7.01934 0.883425,-3.09199 1.511207,-6.25197 2.339777,-9.35911 0.731498,-2.74311 1.592795,-5.45028 2.339778,-8.18922 0.423055,-1.5512 0.661439,-3.15421 1.169889,-4.67955 4.048217,-12.14466 0.380662,-0.76133 4.679555,-9.35911 0.939155,-1.87831 1.512541,-3.91923 2.339777,-5.84945 0.343491,-0.80148 0.894144,-1.51254 1.169889,-2.33978 0.508449,-1.52534 0.536522,-3.2017 1.169889,-4.67955 0.553863,-1.29235 1.710981,-2.25207 2.339777,-3.50967 0.551491,-1.10298 0.711901,-2.36469 1.169889,-3.50966 0.323847,-0.80962 0.846042,-1.53016 1.169889,-2.33978 0.457988,-1.14497 0.684119,-2.3762 1.169889,-3.50967 -2.12716,-3.34482 2.597168,-4.02444 3.509666,-5.84944 3.348138,-6.69628 -0.726876,-0.73836 2.339777,-5.84944 0.723398,-1.20567 1.710982,-2.25208 2.339778,-3.50967 1.102982,-2.20596 1.236796,-4.81337 2.339778,-7.019333 1.322844,-2.64569 1.864425,-3.034315 3.509666,-4.679556 0.389963,-0.389962 0.863977,-0.71102 1.169889,-1.169888 0.483689,-0.725535 0.686194,-1.614244 1.169884,-2.339778 0.91774,-1.376604 2.51699,-2.186088 3.50967,-3.509666 0.52319,-0.697587 0.6467,-1.642191 1.16989,-2.339778 1.32358,-1.76477 3.3015,-2.956987 4.67955,-4.679555 0.87835,-1.097926 1.46144,-2.41174 2.33978,-3.509666 1.72257,-2.15321 4.12688,-3.696234 5.84945,-5.849444 0.54472,-0.680905 0.5533,-1.723192 1.16988,-2.339778 1.98843,-1.988428 4.82349,-2.922873 7.01934,-4.679555 0.86128,-0.689027 1.45739,-1.677988 2.33977,-2.339777 0.69759,-0.52319 1.59206,-0.721257 2.33978,-1.169889 1.20566,-0.723397 2.21732,-1.785915 3.50967,-2.339777 1.47785,-0.633367 3.28354,-0.372168 4.67955,-1.169889 1.43649,-0.820849 2.23867,-2.450499 3.50967,-3.509667 1.08014,-0.900119 2.31735,-1.594582 3.50967,-2.339777 4.82,-3.012503 7.55556,-4.045897 11.69888,-8.189222 4.60515,-4.605143 12.62886,-14.77504 16.37845,-19.888109 1.66295,-2.267661 2.69112,-5.030904 4.67955,-7.019332 1.44564,-1.445634 6.09174,-2.810505 8.18922,-3.509667 1.16989,-0.389962 2.33978,-0.779925 3.50967,-1.169888 1.16989,-0.389963 2.28889,-0.9954924 3.50967,-1.1698891 2.20914,-0.3155924 5.7551,0 8.18922,0 1.94981,0 3.93749,-0.3823901 5.84944,0 0.85505,0.17101 1.50135,0.9303361 2.33978,1.1698891 3.82384,1.092526 7.88975,1.197036 11.69889,2.339777 2.01145,0.603435 3.83799,1.736343 5.84944,2.339778 1.90457,0.57137 3.93108,0.646698 5.84944,1.169889 2.37944,0.648937 4.62663,1.741601 7.01934,2.339777 2.30123,0.575307 4.73086,0.545761 7.01933,1.169889 2.02602,0.55255 3.85719,1.675694 5.84944,2.339777 1.52535,0.50845 3.13951,0.707874 4.67956,1.169889 2.36233,0.708698 4.59277,1.898585 7.01933,2.339778 1.91837,0.348793 3.91156,-0.215321 5.84945,0 1.59802,0.177558 3.1197,0.779926 4.67955,1.169888 3.1197,0.779926 6.30841,1.322879 9.35911,2.339778 2.81747,0.939155 5.324,2.728242 8.18922,3.509666 1.50489,0.410424 3.16628,-0.378319 4.67956,0 0.37832,0.09458 -0.21632,0.84542 0,1.169889 0.61182,0.917736 1.55985,1.559852 2.33977,2.339778 0.77993,0.779925 1.4574,1.677988 2.33978,2.339777 0.69759,0.52319 1.55985,0.779926 2.33978,1.169889 1.16989,0.779926 2.42952,1.439658 3.50967,2.339777 1.271,1.059168 2.23866,2.450499 3.50966,3.509667 1.08015,0.900119 2.42953,1.439658 3.50967,2.339777 1.271,1.059168 2.33978,2.339778 3.50966,3.509667 0.70711,0.707106 7.48212,7.482114 8.18923,8.189221 13.3492,13.349205 -3.52955,-3.088349 9.35911,8.189221 14.4415,12.636319 0.078,-0.194978 5.84944,7.019333 1.03354,1.291926 2.47613,2.21774 3.50967,3.509666 0.54472,0.680905 0.72125,1.592058 1.16989,2.339778 0.72339,1.205662 1.71098,2.252074 2.33977,3.509666 0.93916,1.87831 1.25933,4.048696 2.33978,5.849444 4.55836,7.597259 3.27182,3.692208 7.01933,8.189222 1.24824,1.497889 2.42811,3.057213 3.50967,4.679553 0.48369,0.72554 0.60241,1.67772 1.16989,2.33978 1.79453,2.09361 3.89963,3.89963 5.84944,5.84944 1.55985,2.33978 2.95312,4.79963 4.67956,7.01934 1.01574,1.30596 2.4505,2.23866 3.50966,3.50966 1.72781,2.07337 3.66992,5.83341 4.67956,8.18922 0.48577,1.13347 0.7119,2.3647 1.16989,3.50967 1.85567,4.63919 1.46285,0.29687 2.33977,8.18922 0.17226,1.55031 -0.57931,3.23127 0,4.67956 0.32385,0.80961 2.06404,0.34265 2.33978,1.16988 0.21936,0.65807 -0.17548,9.30062 0,10.529 0.1744,1.22078 0.77993,2.33978 1.16989,3.50967 0.38996,3.1197 0.92876,6.22439 1.16989,9.35911 0.14954,1.94407 -0.27575,3.91923 0,5.84944 0.12332,0.86322 0.77993,1.55986 1.16989,2.33978 0.38996,1.55985 0.97046,3.08411 1.16989,4.67956 0.19347,1.5478 0,3.1197 0,4.67955 0,0.38996 -0.0946,0.79157 0,1.16989 0.29909,1.19635 0.99549,2.28889 1.16989,3.50967 0.33089,2.31626 0,4.67955 0,7.01933 0,0.77993 -0.15296,1.575 0,2.33978 0.24184,1.20922 0.99549,2.28889 1.16988,3.50966 0.3156,2.20915 0,5.75511 0,8.18922 0,1.16989 -0.36995,2.39982 0,3.50967 0.1744,0.52319 0.77993,0.77993 1.16989,1.16989 0.38997,1.94981 0.92326,3.87637 1.16989,5.84944 0.2773,2.21842 0,4.7561 0,7.01934 0,4.28959 0,8.57918 0,12.86877 0,2.33978 0,4.67956 0,7.01934 0,0.77992 0,1.55985 0,2.33977 0,0.38997 0.1744,0.8211 0,1.16989 -0.24663,0.49327 -1.06173,0.62911 -1.16989,1.16989 -0.30591,1.52956 0,3.1197 0,4.67956 0,0.77992 0.18916,1.58313 0,2.33977 -0.21148,0.84595 -0.99888,1.48473 -1.16989,2.33978 -0.14668,0.73343 0.29271,6.14122 0,7.01933 -0.17439,0.52319 -0.99549,0.6467 -1.16988,1.16989 -0.36996,1.10986 0,2.33978 0,3.50967 0,1.94981 0,3.89963 0,5.84944 0,1.55985 0,3.11971 0,4.67956 0,0.38996 0.38996,1.16989 0,1.16989 -0.38997,0 0,-0.77993 0,-1.16989 0,-0.38997 0,-0.77993 0,-1.16989 0,-1.16989 -0.36996,-2.39981 0,-3.50967 0.17439,-0.52319 0.86397,-0.71102 1.16988,-1.16989 0.48369,-0.72553 0.6862,-1.61424 1.16989,-2.33977 0.32435,-0.48652 4.26114,-4.47035 4.67956,-4.67956 0.69759,-0.34879 1.64219,0.34879 2.33978,0 0.49326,-0.24663 0.67662,-0.92325 1.16989,-1.16989 0.35603,-0.17802 2.98279,0 3.50966,0 0.81371,0 5.42637,0.21154 5.84945,0 0.49326,-0.24663 0.67662,-0.92325 1.16988,-1.16989 0.35604,-0.17801 2.9828,0 3.50967,0 0.38996,0 0.89414,-0.27574 1.16989,0 0.27574,0.27575 -0.27575,0.89415 0,1.16989 2.42054,2.42054 -0.0946,-3.69891 2.33978,1.16989 0.34879,0.69759 -0.55149,1.78829 0,2.33978 0.27574,0.27574 0.89414,-0.27575 1.16989,0 0.18155,0.18155 -0.15175,3.05443 0,3.50966 0.27574,0.82724 0.89414,1.51255 1.16988,2.33978 0.12332,0.36995 -0.17439,0.8211 0,1.16989 0.24664,0.49327 0.92326,0.67662 1.16989,1.16989 0.3488,0.69759 -0.34879,1.64219 0,2.33978 0.24664,0.49327 0.92326,0.67662 1.16989,1.16989 0.46796,0.93591 -0.46795,2.57375 0,3.50966 0.24664,0.49327 0.92326,0.67662 1.16989,1.16989 0.24982,0.49964 0,5.38697 0,5.84945 0,0.38996 0.27575,0.89414 0,1.16988 -0.27574,0.27575 -0.99549,-0.34879 -1.16989,0 -0.46795,0.93592 0.46796,2.57376 0,3.50967 -0.24663,0.49327 -0.99549,0.6467 -1.16989,1.16989 -0.24663,0.7399 0.18916,1.58314 0,2.33978 -0.21148,0.84595 -0.77992,1.55985 -1.16989,2.33977 -0.38996,1.55986 -0.90555,3.09358 -1.16988,4.67956 -0.0526,0.31557 0.23004,4.21947 0,4.67955 -2.32171,4.64342 -0.36977,-5.17053 -2.33978,4.67956 -0.1787,0.89351 0.29673,3.78935 0,4.67955 -0.27575,0.82724 -0.9584,1.49383 -1.16989,2.33978 -0.18916,0.75664 0.24663,1.59988 0,2.33978 -0.1744,0.52319 -0.96507,0.65784 -1.16989,1.16989 -0.59714,1.49286 -0.72818,3.13356 -1.16989,4.67955 -0.33878,1.18573 -0.96716,2.29328 -1.16989,3.50967 -0.19233,1.15397 0,2.33978 0,3.50967 0,1.94981 0,3.89963 0,5.84944 0,6.23941 0,12.47881 0,18.71822 0,2.72974 0,5.45948 0,8.18922 0,0.77993 0.43263,1.69084 0,2.33978 -0.48369,0.72553 -1.81658,0.4723 -2.33977,1.16989 -0.73991,0.98653 -0.6184,2.40668 -1.16989,3.50966 -0.6288,1.2576 -1.61638,2.30401 -2.33978,3.50967 -0.89726,1.49544 -1.55985,3.1197 -2.33978,4.67956 -0.38996,0.77992 -0.6467,1.64219 -1.16989,2.33977 -0.66179,0.88239 -1.84651,1.35324 -2.33977,2.33978 -0.3488,0.69759 0.24663,1.59988 0,2.33978 -0.1744,0.52319 -0.86398,0.71102 -1.16989,1.16989 -0.48369,0.72553 -0.6862,1.61424 -1.16989,2.33977 -1.59665,2.39498 -3.63676,0.43233 -5.84945,1.16989 -0.52319,0.1744 -0.6259,1.07923 -1.16989,1.16989 -2.28134,0.38023 -6.6158,0 -9.35911,0 -0.98036,0 -5.35222,-0.24861 -5.84944,0 -0.77993,0.38997 1.16989,2.33978 -1.16989,1.16989 -0.49327,-0.24663 -0.77992,-0.77992 -1.16989,-1.16989 -0.38996,-0.38996 -0.92325,-0.67662 -1.16989,-1.16989 -0.17439,-0.34879 0.1744,-0.82109 0,-1.16989 -0.24663,-0.49326 -0.92325,-0.67662 -1.16988,-1.16988 -0.1744,-0.3488 0.27574,-0.89415 0,-1.16989 -0.27575,-0.27575 -0.89415,0.27574 -1.16989,0 -0.27575,-0.27575 0.17439,-0.8211 0,-1.16989 -0.24664,-0.49327 -0.77993,-0.77993 -1.16989,-1.16989 -0.38996,-0.38996 -0.67662,-0.92325 -1.16989,-1.16989 -0.34879,-0.1744 -0.77993,0 -1.16989,0 -0.38996,0 -0.89414,-0.27574 -1.16989,0 -0.61658,0.61659 -0.77992,1.55985 -1.16989,2.33978 -5.75989,11.51978 1.29539,-2.91462 -4.67955,10.529 -6.51424,13.02847 1.26892,-3.3838 -3.50967,9.35911 -0.61235,1.63292 -1.96146,2.97711 -2.33978,4.67955 -0.41524,1.8686 0,6.83006 0,9.35911 0,0.77993 0,1.55985 0,2.33978 0,0.38996 0.1744,0.8211 0,1.16989 -0.24663,0.49327 -0.99549,0.6467 -1.16988,1.16989 -0.36043,1.08126 0.36375,4.75818 0,5.84944 -0.27575,0.82724 -0.89415,1.51254 -1.16989,2.33978 -0.98465,2.95395 2.37614,-1.21838 -1.16989,3.50967 -0.66179,0.88238 -1.55985,1.55985 -2.33978,2.33977 -0.77993,1.55985 -1.32612,3.26043 -2.33978,4.67956 -0.96164,1.3463 -2.33977,2.33978 -3.50966,3.50966 -2.72974,2.72975 -5.45948,5.45949 -8.18922,8.18923 -1.16989,1.16988 -2.33978,2.33977 -3.50967,3.50966 -0.77993,0.77993 -1.67799,1.45739 -2.33978,2.33978 -0.52319,0.69759 -0.6467,1.64219 -1.16989,2.33978 -0.66179,0.88238 -1.67799,1.45739 -2.33978,2.33977 -0.52319,0.69759 -0.5533,1.7232 -1.16988,2.33978 -0.99422,0.99422 -2.51546,1.34557 -3.50967,2.33978 -0.61659,0.61659 -0.62517,1.65887 -1.16989,2.33978 -1.37805,1.72257 -3.1197,3.1197 -4.67955,4.67955 -1.16989,1.16989 -2.18609,2.51699 -3.50967,3.50967 -1.06793,0.80094 -4.21633,2.9653 -5.84944,3.50967 -0.36996,0.12331 -0.8211,-0.1744 -1.16989,0 -3.97186,1.98592 -5.02518,4.48809 -8.18922,7.01933 -1.09793,0.87834 -2.28889,1.64219 -3.50967,2.33978 -11.69735,6.68419 2.15655,-1.42562 -9.35911,3.50966 -2.58469,1.10773 -4.43464,3.57183 -7.01933,4.67956 -1.47786,0.63336 -3.1867,0.57274 -4.67956,1.16989 -0.51205,0.20481 -0.69699,0.88614 -1.16989,1.16988 -6.46672,3.88004 -2.54129,1.08913 -8.18922,3.50967 -7.0706,3.03026 -2.31467,1.32267 -8.18922,4.67956 -17.04079,9.73759 4.9357,-3.0528 -8.18922,3.50966 -1.25759,0.6288 -2.25208,1.71098 -3.50967,2.33978 -2.25331,1.12665 -5.94022,1.59011 -8.18922,2.33978 -0.82724,0.27574 -1.49383,0.9584 -2.33978,1.16989 -0.75664,0.18916 -1.59987,-0.24664 -2.33977,0 -0.52319,0.17439 -0.63487,1.03613 -1.16989,1.16988 -1.06651,0.26663 -7.72383,0 -9.35911,0 -0.38997,0 -0.8211,0.1744 -1.16989,0 -0.49327,-0.24663 -0.77993,-0.77992 -1.16989,-1.16988 -0.77993,-0.77993 -1.45739,-1.67799 -2.33978,-2.33978 -0.41714,-2.87385 -2.4836,-0.48585 -3.50966,-1.16989 -0.91774,-0.61182 -1.4785,-1.65075 -2.33978,-2.33978 -1.09793,-0.87834 -2.33978,-1.55985 -3.50967,-2.33978 -1.16989,-0.77992 -2.28889,-1.64219 -3.50966,-2.33977 -1.51419,-0.86525 -3.11971,-1.55985 -4.67956,-2.33978 -0.77993,-0.38996 -1.51254,-0.89414 -2.33978,-1.16989 -1.52535,-0.50845 -3.17407,-0.60533 -4.67955,-1.16989 -1.63293,-0.61235 -3.02509,-1.78828 -4.67956,-2.33978 -1.88639,-0.62879 -3.93108,-0.64669 -5.84944,-1.16988 -19.0975,-6.36584 4.86557,1.21639 -14.03867,-3.50967 -2.3927,-0.59818 -4.60088,-1.85609 -7.01933,-2.33978 -1.52956,-0.30591 -3.21902,0.5477 -4.67955,0 -1.82567,-0.68462 -2.8978,-2.71777 -4.67956,-3.50966 -1.81705,-0.80758 -3.96305,-0.5411 -5.84944,-1.16989 -1.65448,-0.55149 -3.11971,-1.55986 -4.67956,-2.33978 -1.55985,-0.77993 -3.22849,-1.3724 -4.67955,-2.33978 -1.83548,-1.22365 -2.88449,-3.39736 -4.67956,-4.67955 -1.85031,-1.32165 -4.24158,-1.90181 -5.84944,-3.50967 -1.98843,-1.98843 -2.81133,-4.91757 -4.67956,-7.01933 -1.29538,-1.45731 -3.30083,-2.13094 -4.67955,-3.50967 -1.76564,-1.76563 -2.80039,-4.20517 -4.67956,-5.84944 -1.31247,-1.14841 -3.22848,-1.3724 -4.67955,-2.33978 -0.91774,-0.61182 -1.4785,-1.65075 -2.33978,-2.33978 -1.09793,-0.87834 -2.42952,-1.43966 -3.50967,-2.33978 -2.109632,-1.75802 -3.739805,-4.09141 -5.849441,-5.84944 -1.497889,-1.24824 -3.300828,-2.13094 -4.679555,-3.50967 -4.388851,-4.38885 -0.740171,-2.15678 -3.509666,-5.84944 -0.661789,-0.88238 -1.905292,-1.32598 -2.339778,-2.33978 -3.504361,-8.17684 0.06861,-3.16663 -1.169888,-9.35911 -0.17101,-0.85505 -0.779926,-1.55985 -1.169889,-2.33977 -0.389963,-2.33978 -0.90794,-4.66179 -1.169889,-7.01934 -0.129193,-1.16273 0,-2.33977 0,-3.50966 0,-1.94982 0,-3.89963 0,-5.84945 0,-0.77992 0.18916,-1.58314 0,-2.33977 -0.211487,-0.84595 -0.894143,-1.51255 -1.169889,-2.33978 -0.123317,-0.36995 0.123317,-0.79994 0,-1.16989 -0.275745,-0.82724 -0.958401,-1.49383 -1.169889,-2.33978 -0.595677,-2.38271 0.934808,-3.74475 -1.169888,-5.84944 -0.275746,-0.27575 -0.894144,0.27574 -1.169889,0 -0.275745,-0.27575 0,-0.77993 0,-1.16989 0,-0.32707 0.09152,-5.6664 0,-5.84945 -0.174397,-0.34879 -0.894143,0.27575 -1.169889,0 -0.551491,-0.55149 0.246634,-1.59987 0,-2.33977 -0.275745,-0.82724 -0.894143,-1.51254 -1.169889,-2.33978 -0.246634,-0.7399 0.348794,-1.64219 0,-2.33978 -0.246634,-0.49327 -0.646698,-0.99549 -1.169888,-1.16989 -0.62894,-0.20964 -3.689068,0 -4.679555,0 -1.359025,0 -4.788885,-0.26514 -5.849444,0 -1.691897,0.42298 -3.025083,1.78829 -4.679555,2.33978 -0.369952,0.12332 -0.779926,0 -1.169889,0 -1.101846,0 -5.183938,-0.22183 -5.849444,0 -0.52319,0.1744 -0.67662,0.92326 -1.169889,1.16989 -0.348793,0.1744 -0.779926,0 -1.169889,0 -0.389963,0 -0.821095,0.1744 -1.169888,0 -0.493269,-0.24663 -0.779926,-0.77993 -1.169889,-1.16989 -0.779926,-0.77992 -1.559852,-1.55985 -2.339778,-2.33978 -0.779926,-0.77992 -1.559851,-1.55985 -2.339777,-2.33977 -0.779926,-0.77993 -1.727954,-1.42205 -2.339778,-2.33978 -2.670137,-4.00521 -3.035494,-8.48462 -4.679555,-12.86878 -7.323353,-18.30838 1.527985,4.58396 -3.509666,-10.529 -0.275746,-0.82723 -0.958402,-1.49383 -1.169889,-2.33977 -0.575307,-2.30123 -0.745563,-4.68555 -1.169889,-7.01934 -0.779926,-4.28959 -1.559851,-8.57918 -2.339777,-12.86877 -0.355701,-1.95636 -0.950304,-3.87318 -1.169889,-5.84945 -0.172257,-1.55031 0,-3.1197 0,-4.67955 0,-0.77993 0.18916,-1.58314 0,-2.33978 -0.211487,-0.84595 -0.894143,-1.51254 -1.169889,-2.33978 -0.508449,-1.52535 -0.661439,-3.1542 -1.169889,-4.67955 -0.275745,-0.82724 -0.846042,-1.53016 -1.169888,-2.33978 -0.457989,-1.14497 -0.618398,-2.40669 -1.169889,-3.50967 -0.628796,-1.25759 -1.817591,-2.2042 -2.339778,-3.50966 -0.477925,-1.19482 0.415599,-3.43276 0,-4.67956 -0.275745,-0.82723 -0.998878,-1.48473 -1.169888,-2.33978 -0.234485,-1.17242 0,-5.49596 0,-7.01933 0,-0.77992 0,-1.55985 0,-2.33978 0,-0.38996 0.09458,-0.79157 0,-1.16988 -0.299088,-1.19636 -0.928044,-2.30045 -1.169889,-3.50967 -0.152956,-0.76478 0,-1.55985 0,-2.33978 0,-2.33978 0,-4.67955 0,-7.01933 0,-0.62497 -0.167413,-5.51462 0,-5.84945 0.246634,-0.49326 1.036132,-0.63486 1.169889,-1.16988 0.283739,-1.13496 -0.28374,-2.37471 0,-3.50967 0.133756,-0.53502 0.863976,-0.71102 1.169888,-1.16989 1.136572,-1.70486 0.730361,-2.43672 2.339778,-3.50967 0.725534,-0.48368 1.559852,-0.77992 2.339777,-1.16988 0.779926,-0.38997 1.49383,-0.95841 2.339778,-1.16989 0.756639,-0.18916 1.559852,0 2.339778,0 0.779925,0 1.559851,0 2.339777,0 0.389963,0 0.799938,0.12331 1.169889,0 0.827236,-0.27575 1.493829,-0.9584 2.339777,-1.16989 0.912715,-0.22818 5.653871,0 7.019333,0 0.389963,0 0.779926,0 1.169889,0 0.389963,0 0.894143,-0.27575 1.169889,0 0.275745,0.27574 -0.275746,0.89414 0,1.16989 0.275745,0.27574 0.894143,-0.27575 1.169888,0 1.424905,1.4249 0.548002,2.61378 2.339778,3.50966 0.348793,0.1744 0.894143,-0.27574 1.169889,0 0.55149,0.55149 -0.551491,1.78829 0,2.33978 1.559851,1.55985 1.122578,-2.48171 2.339777,1.16989 0.210417,0.63125 -0.798787,4.67955 1.169889,4.67955 0.389963,0 0,-0.77992 0,-1.16988 0,-0.77993 0,-1.55986 0,-2.33978 0,-3.89963 0,-7.79926 0,-11.69889 0,-10.13904 0,-20.27807 0,-30.41711 0,-1.37495 -0.264365,-5.96187 0,-7.01933 0.299088,-1.19635 0.928044,-2.30044 1.169889,-3.50967 0.152956,-0.76478 -0.246634,-1.59987 0,-2.33977 0.174396,-0.52319 0.886149,-0.69699 1.169889,-1.16989 3.1954,-5.32567 1.573233,-3.34814 3.509666,-8.18922 0.240949,-0.60238 2.353282,-4.57152 2.339777,-4.67956 -0.305912,-2.4473 -2.937953,-4.62663 -2.339777,-7.01933 2.859728,-1.42987 5.199505,-1.42987 5.849444,-4.67956 0.0068,-0.0339 -0.210425,-5.42859 0,-5.84944 0.246634,-0.49327 0.923254,-0.67662 1.169888,-1.16989 0.178019,-0.35604 0,-2.9828 0,-3.50967 0,-2.33977 0,-4.67955 0,-7.01933 0,-1.94981 0,-3.89963 0,-5.84944 0,-0.77993 -0.246634,-1.59988 0,-2.33978 1.344286,-4.03286 1.169889,-0.86661 1.169889,-3.50967" style="fill:none;fill-rule:evenodd;stroke:#000000;stroke-width:1px;stroke-linecap:butt;stroke-linejoin:miter;stroke-opacity:1" class="tOTHcHGj_1"></path>
    <path inkscape:connector-curvature="0" id="path3536" d="m 109.96954,272.58408 c 6.94959,-1.73739 2.93436,-0.0904 9.35911,-4.67955 1.14414,-0.81724 2.30401,-1.61638 3.50967,-2.33978 0.74772,-0.44863 1.48473,-0.99888 2.33978,-1.16989 1.14717,-0.22943 2.36249,0.22944 3.50966,0 4.70778,-0.94155 0.53752,-0.8537 3.50967,-2.33978 1.10298,-0.55149 2.33978,-0.77992 3.50967,-1.16988 1.16989,-0.38997 2.30044,-0.92805 3.50966,-1.16989 1.14717,-0.22944 2.33978,0 3.50967,0 3.50967,0 7.01933,0 10.529,0 4.28959,0 8.57918,0 12.86878,0 0.61175,0 4.37194,-0.15381 4.67955,0 4.8688,2.4344 -1.25065,-0.0808 1.16989,2.33977 0.27574,0.27575 0.82109,-0.17439 1.16989,0 0.49327,0.24664 0.67662,0.92326 1.16989,1.16989 0.93591,0.46796 2.57375,-0.46795 3.50966,0 0.98654,0.49327 1.35324,1.84651 2.33978,2.33978 0.34879,0.1744 0.8211,-0.1744 1.16989,0 0.49327,0.24664 0.77993,0.77993 1.16989,1.16989 0.38996,0.38996 0.77992,0.77993 1.16989,1.16989 -2.72974,1.16989 -5.45948,2.33978 -8.18922,3.50966 -0.38997,0.38997 -0.67662,0.92326 -1.16989,1.16989 -0.3488,0.1744 -0.79994,-0.12331 -1.16989,0 -0.82724,0.27575 -1.51254,0.89415 -2.33978,1.16989 -0.80469,0.26823 -2.81941,-0.34513 -3.50967,0 -3.56764,1.78383 2.13967,0.92745 -3.50966,2.33978 -0.75664,0.18916 -1.58314,-0.18916 -2.33978,0 -1.6919,0.42297 -2.98766,1.9168 -4.67955,2.33978 -0.75664,0.18916 -1.55986,0 -2.33978,0 -0.38997,0 -0.8211,-0.1744 -1.16989,0 -0.49327,0.24663 -0.6467,0.99549 -1.16989,1.16989 -1.10985,0.36995 -2.33978,0 -3.50967,0 -3.1197,0 -6.2394,0 -9.35911,0 -2.33977,0 -4.67955,0 -7.01933,0 -0.38996,0 -0.89414,0.27574 -1.16989,0 -0.27574,-0.27575 0.27575,-0.89415 0,-1.16989 -0.27574,-0.27575 -0.89414,0.27574 -1.16989,0 -0.27574,-0.27575 0.1744,-0.8211 0,-1.16989 -0.23626,-0.47253 -4.64448,-4.64449 -4.67955,-4.67956 -0.38996,-0.38996 -0.67662,-0.92325 -1.16989,-1.16989 -0.34879,-0.17439 -0.99549,0.3488 -1.16989,0 -0.34879,-0.69758 0.24664,-1.59987 0,-2.33977 -0.1744,-0.52319 -0.77992,-0.77993 -1.16989,-1.16989 -0.38996,-0.38996 -0.77992,-0.77993 -1.16989,-1.16989" style="fill:none;fill-rule:evenodd;stroke:#000000;stroke-width:1px;stroke-linecap:butt;stroke-linejoin:miter;stroke-opacity:1" class="tOTHcHGj_2"></path>
    <path inkscape:connector-curvature="0" id="path3538" d="m 276.09375,271.41419 c 9.57174,-6.38116 3.59676,-3.53455 11.69889,-5.84944 1.18572,-0.33878 2.30044,-0.92804 3.50966,-1.16989 0.76478,-0.15295 1.58314,0.18916 2.33978,0 0.84595,-0.21148 1.49383,-0.9584 2.33978,-1.16989 1.13496,-0.28374 2.33978,0 3.50967,0 2.33977,0 4.67955,0 7.01933,0 1.13347,0 6.32176,-0.23252 7.01933,0 0.82724,0.27575 1.53016,0.84605 2.33978,1.16989 2.23002,0.89201 5.97058,1.89605 8.18922,2.33978 2.48754,0.49751 -0.17546,-1.28686 3.50967,1.16989 0.45886,0.30591 0.67662,0.92325 1.16988,1.16989 1.6137,0.80684 1.04644,-1.4168 2.33978,1.16989 0.1744,0.34879 -0.27574,0.89414 0,1.16988 1.55985,1.55986 1.16989,-1.94981 1.16989,1.16989 -4.41361,6.62042 -0.41856,2.73689 -3.50967,3.50967 -1.19635,0.29909 -2.30044,0.92804 -3.50966,1.16989 -1.45043,0.29008 -3.23326,-0.36158 -4.67956,0 -1.19635,0.29909 -2.33977,0.77992 -3.50966,1.16989 -1.16989,0.38996 -2.3647,0.7119 -3.50967,1.16989 -0.80962,0.32384 -1.49383,0.9584 -2.33978,1.16988 -1.13496,0.28374 -2.33977,0 -3.50966,0 -2.33978,0 -4.67956,0 -7.01934,0 -1.94981,0 -3.89962,0 -5.84944,0 -0.38996,0 -0.77993,0 -1.16989,0 -0.38996,0 -0.82109,0.1744 -1.16989,0 -3.88003,-3.88003 1.10298,0.5515 -2.33977,-1.16988 -0.49327,-0.24664 -0.67662,-0.92326 -1.16989,-1.16989 -0.3488,-0.1744 -0.8211,0.17439 -1.16989,0 -0.98654,-0.49327 -1.35324,-1.84651 -2.33978,-2.33978 -0.34879,-0.1744 -0.79994,0.12332 -1.16989,0 -0.82723,-0.27575 -1.51254,-0.89414 -2.33978,-1.16989 -0.36995,-0.12332 -0.83549,0.20064 -1.16988,0 -1.67196,-1.00317 -3.11971,-2.33978 -4.67956,-3.50967 z" style="fill:none;fill-rule:evenodd;stroke:#000000;stroke-width:1px;stroke-linecap:butt;stroke-linejoin:miter;stroke-opacity:1" class="tOTHcHGj_3"></path>
    <path inkscape:connector-curvature="0" id="path3540" d="m 262.05508,232.80787 c 7.48222,-4.50588 12.17058,-3.27628 21.058,-4.67956 3.55129,-0.56073 7.06041,-1.3938 10.529,-2.33978 4.92905,-1.34428 0.46582,-1.16989 3.50967,-1.16989" style="fill:none;fill-rule:evenodd;stroke:#000000;stroke-width:1px;stroke-linecap:butt;stroke-linejoin:miter;stroke-opacity:1" class="tOTHcHGj_4"></path>
    <path inkscape:connector-curvature="0" id="path3542" d="m 281.94319,232.80787 c 9.29096,1.85819 3.86102,1.16988 16.37845,1.16988 1.94981,0 3.95784,0.4729 5.84944,0 2.8812,-0.7203 5.37176,-2.57051 8.18922,-3.50966 4.00473,-1.33491 5.85703,-0.58874 9.35911,-2.33978 0.49327,-0.24663 0.77993,-0.77993 1.16989,-1.16989" style="fill:none;fill-rule:evenodd;stroke:#000000;stroke-width:1px;stroke-linecap:butt;stroke-linejoin:miter;stroke-opacity:1" class="tOTHcHGj_5"></path>
    <path inkscape:connector-curvature="0" id="path3544" d="m 301.8313,238.65731 c 4.2896,0 8.57919,0 12.86878,0 1.16989,0 2.33978,0 3.50967,0 0.38996,0 0.79993,0.12332 1.16988,0 0.82724,-0.27575 1.51255,-0.89414 2.33978,-1.16989 0.75658,-0.25219 4.57204,0 5.84945,0" style="fill:none;fill-rule:evenodd;stroke:#000000;stroke-width:1px;stroke-linecap:butt;stroke-linejoin:miter;stroke-opacity:1" class="tOTHcHGj_6"></path>
    <path inkscape:connector-curvature="0" id="path3546" d="m 340.43763,239.8272 c 3.50967,-0.77993 7.01934,-1.55985 10.529,-2.33978 1.55985,0 3.14093,0.25644 4.67956,0 8.06571,-1.34429 -0.93694,-1.16989 3.50966,-1.16989" style="fill:none;fill-rule:evenodd;stroke:#000000;stroke-width:1px;stroke-linecap:butt;stroke-linejoin:miter;stroke-opacity:1" class="tOTHcHGj_7"></path>
    <path inkscape:connector-curvature="0" id="path3548" d="m 131.02754,233.97775 c -3.1197,-1.55985 -5.95423,-3.92291 -9.35911,-4.67955 -2.19496,-0.48777 -12.97872,0 -17.54833,0" style="fill:none;fill-rule:evenodd;stroke:#000000;stroke-width:1px;stroke-linecap:butt;stroke-linejoin:miter;stroke-opacity:1" class="tOTHcHGj_8"></path>
    <path inkscape:connector-curvature="0" id="path3550" d="m 140.38665,230.46809 c -5.55154,-5.55154 -2.58679,-3.98197 -8.18922,-5.84945 -1.16989,-0.38996 -2.28889,-0.99549 -3.50967,-1.16988 -1.54417,-0.2206 -3.14092,0.25643 -4.67955,0 -9.11209,-1.51869 3.96561,-1.16989 -4.67956,-1.16989" style="fill:none;fill-rule:evenodd;stroke:#000000;stroke-width:1px;stroke-linecap:butt;stroke-linejoin:miter;stroke-opacity:1" class="tOTHcHGj_9"></path>
    <path inkscape:connector-curvature="0" id="path3552" d="m 153.25543,228.12831 c -3.77483,-5.6916 -3.97384,-5.84944 -10.529,-5.84944" style="fill:none;fill-rule:evenodd;stroke:#000000;stroke-width:1px;stroke-linecap:butt;stroke-linejoin:miter;stroke-opacity:1" class="tOTHcHGj_10"></path>
    <path inkscape:connector-curvature="0" id="path3554" d="m 176.6532,232.80787 c 1.16989,-1.55986 3.26783,-2.7448 3.50967,-4.67956 0.55369,-4.4295 -3.93768,-5.84944 -7.01933,-5.84944" style="fill:none;fill-rule:evenodd;stroke:#000000;stroke-width:1px;stroke-linecap:butt;stroke-linejoin:miter;stroke-opacity:1" class="tOTHcHGj_11"></path>
    <path inkscape:connector-curvature="0" id="path3556" d="m 217.59931,258.54542 c -0.38996,1.94981 -0.81419,3.89309 -1.16989,5.84944 -0.42432,2.33379 -0.65532,4.70377 -1.16989,7.01933 -0.99015,4.45571 -3.50348,8.4585 -4.67955,12.86878 -1.1988,4.4955 -0.43917,11.11456 -3.50967,15.20856 -0.66179,0.88238 -1.67799,1.45739 -2.33977,2.33977 -0.5232,0.69759 -0.77993,1.55985 -1.16989,2.33978 -0.77993,1.16989 -1.46144,2.41174 -2.33978,3.50967 -0.68903,0.86128 -1.67799,1.45739 -2.33978,2.33977 -0.52319,0.69759 -0.77992,1.55986 -1.16989,2.33978 -1.41821,2.83643 -3.93268,7.54153 -4.67955,10.529 -0.28374,1.13496 0.22943,2.3625 0,3.50967 -0.17101,0.85505 -1.02654,1.47966 -1.16989,2.33977 -0.38466,2.30795 0,4.67956 0,7.01934 0,0.77992 0.18916,1.58314 0,2.33977 -0.82788,3.3115 -2.25159,2.0752 -3.50967,5.84945 -0.36995,1.10985 0.28374,2.37471 0,3.50966 -0.13375,0.53503 -0.92325,0.67663 -1.16989,1.16989 -0.55149,1.10299 -0.7119,2.3647 -1.16989,3.50967 -0.32384,0.80962 -0.9584,1.49383 -1.16988,2.33978 -0.18916,0.75664 0.24663,1.59987 0,2.33978 -0.1744,0.52319 -1.03614,0.63486 -1.16989,1.16988 -0.28374,1.13496 0,2.33978 0,3.50967 0,1.16989 0,2.33978 0,3.50967 0,0.38996 0.12331,0.79993 0,1.16989 -0.27575,0.82723 -0.89415,1.51254 -1.16989,2.33977 -0.12332,0.36995 0,0.77993 0,1.16989 0,0.38996 -0.27575,0.89414 0,1.16989 0.27574,0.27575 0.77992,0 1.16989,0" style="fill:none;fill-rule:evenodd;stroke:#000000;stroke-width:1px;stroke-linecap:butt;stroke-linejoin:miter;stroke-opacity:1" class="tOTHcHGj_12"></path>
    <path inkscape:connector-curvature="0" id="path3558" d="m 191.86176,368.51496 c 3.67986,-3.35296 4.58922,-3.14944 8.18922,-5.84944 0.24327,-0.18246 2.24221,-2.30726 2.33978,-2.33978 1.10985,-0.36995 2.33978,0 3.50966,0 0.77993,0 1.55986,0 2.33978,0 0.38996,0 0.89414,-0.27574 1.16989,0 0.27575,0.27575 -0.27575,0.89414 0,1.16989 0.27575,0.27575 0.89414,-0.27575 1.16989,0 0.23917,0.23917 -0.23193,3.04582 0,3.50967 0.24663,0.49326 0.92325,0.67662 1.16989,1.16989 0.17439,0.34879 0,0.77992 0,1.16988 0,0.38997 0,0.77993 0,1.16989 0,1.55985 0,3.11971 0,4.67956 0,0.38996 -0.27575,0.89414 0,1.16989 0.27574,0.27574 0.89414,-0.27575 1.16989,0 0.27574,0.27574 -0.27575,0.89414 0,1.16989 0.27574,0.27574 0.82109,-0.1744 1.16989,0 0.49326,0.24663 0.67662,0.92325 1.16988,1.16988 0.3488,0.1744 0.79994,-0.12331 1.16989,0 0.82724,0.27575 1.48473,0.99888 2.33978,1.16989 1.3679,0.27358 5.2149,0 7.01933,0 0.9418,0 3.94527,0.24476 4.67956,0 8.47399,-2.82466 -1.84446,0.33729 3.50966,-2.33977 0.3488,-0.1744 0.8211,0.17439 1.16989,0 0.49327,-0.24664 0.7287,-0.839 1.16989,-1.16989 1.12483,-0.84362 2.30401,-1.61638 3.50967,-2.33978 0.74772,-0.44863 1.85609,-0.44436 2.33978,-1.16989 0.43262,-0.64894 -0.24664,-1.59987 0,-2.33978 0.17439,-0.52319 0.83899,-0.72869 1.16988,-1.16989 0.84362,-1.12482 1.24186,-2.63132 2.33978,-3.50966 0.96295,-0.77036 2.40669,-0.6184 3.50967,-1.16989 0.49327,-0.24664 0.67662,-0.92326 1.16989,-1.16989 0.35603,-0.17802 2.9828,0 3.50966,0 0.38997,0 0.77993,0 1.16989,0 0.38997,0 0.89415,-0.27575 1.16989,0 0.27575,0.27575 0,0.77993 0,1.16989 0,2.72974 0,5.45948 0,8.18922 0,2.34404 -0.4258,3.50967 2.33978,3.50967 0.77992,0 1.64219,0.34879 2.33978,0 0.39434,-0.19718 -0.25633,-3.08246 0,-3.50967 1.00317,-1.67195 2.63768,-2.93559 3.50966,-4.67955 0.71906,-1.43812 0.70788,-3.13951 1.16989,-4.67956 0.7087,-2.36233 1.61446,-4.66205 2.33978,-7.01933 1.98559,-6.45317 3.16145,-8.6352 2.33978,-15.20856 -0.008,-0.0675 -2.24241,-4.43612 -2.33978,-4.67955 -0.45799,-1.14497 -0.68412,-2.3762 -1.16989,-3.50967 -0.68698,-1.60296 -1.47453,-3.16537 -2.33978,-4.67955 -0.69758,-1.22078 -1.99876,-2.14562 -2.33978,-3.50967 -0.4387,-1.75483 0.35097,-8.4232 0,-10.529 -0.14335,-0.86012 -0.77992,-1.55985 -1.16988,-2.33978 -1.16989,-2.33977 -2.33978,-4.67955 -3.50967,-7.01933 -2.92898,-5.85796 -5.54405,-12.20724 -9.35911,-17.54833 -0.6411,-0.89753 -1.62197,-1.50233 -2.33978,-2.33978 -9.60318,-11.20371 0.62106,-0.54883 -10.529,-11.69889 -0.77992,-0.77992 -1.72795,-1.42204 -2.33977,-2.33977 -0.43263,-0.64894 0.55149,-1.78829 0,-2.33978 -0.27575,-0.27575 -0.89415,0.27575 -1.16989,0 -2.42054,-2.42054 3.6989,0.0946 -1.16989,-2.33978 -2.95017,-1.47508 -6.24433,-1.44984 -9.35911,-2.33978 -2.47586,-0.70738 -4.12556,-2.95566 -5.84945,-4.67955" style="fill:none;fill-rule:evenodd;stroke:#000000;stroke-width:1px;stroke-linecap:butt;stroke-linejoin:miter;stroke-opacity:1" class="tOTHcHGj_13"></path>
    <path inkscape:connector-curvature="0" id="path3560" d="m 174.31343,442.21796 c 4.11469,0.31072 7.762,-1.77737 11.69888,-2.33978 3.87969,-0.55424 7.81419,-0.65193 11.69889,-1.16989 1.97099,-0.2628 3.87637,-0.92326 5.84945,-1.16989 2.21842,-0.2773 4.75609,0 7.01933,0 0.77992,0 1.55985,0 2.33978,0 0.38996,0 0.82109,0.1744 1.16989,0 0.49326,-0.24663 0.67662,-0.92325 1.16988,-1.16989 0.52058,-0.26029 4.14447,0.17837 4.67956,0 0.52319,-0.1744 0.63486,-1.03613 1.16989,-1.16989 0.9208,-0.2302 8.16186,0 9.35911,0 0.38996,0 0.79157,0.0946 1.16989,0 1.19635,-0.29909 2.31331,-0.8708 3.50966,-1.16989 0.99044,-0.2476 3.4649,0 4.67956,0 4.28959,0 8.57918,0 12.86877,0 1.16989,0 2.33978,0 3.50967,0 0.38996,0 0.79994,0.12332 1.16989,0 0.82724,-0.27574 1.49383,-0.9584 2.33978,-1.16988 1.13496,-0.28374 2.33977,0 3.50966,0 1.15318,0 3.49296,0 2.33978,0 -0.77992,0 -3.1197,0 -2.33978,0 1.55986,0 3.11971,0 4.67956,0" style="fill:none;fill-rule:evenodd;stroke:#000000;stroke-width:1px;stroke-linecap:butt;stroke-linejoin:miter;stroke-opacity:1" class="tOTHcHGj_14"></path>
    <path inkscape:connector-curvature="0" id="path3562" d="m 278.43353,436.36851 c -1.55985,0 -3.15685,0.33838 -4.67956,0 -2.05,-0.45556 -3.85719,-1.67569 -5.84944,-2.33978 -0.36995,-0.12331 -0.79994,0.12332 -1.16989,0 -0.82724,-0.27574 -1.5383,-0.82639 -2.33978,-1.16988 -1.93022,-0.82724 -3.97113,-1.40063 -5.84944,-2.33978 -2.0338,-1.0169 -3.81565,-2.49277 -5.84945,-3.50967 -1.87831,-0.93915 -3.93042,-1.48688 -5.84944,-2.33978 -1.59366,-0.70829 -2.97712,-1.96145 -4.67955,-2.33977 -2.1126,-2.29434 -4.725,0.45886 -7.01934,0 -6.32234,-1.26447 -2.76501,-1.16989 -5.84944,-1.16989 -0.38996,0 -0.77993,0 -1.16989,0 -0.38996,0 -0.89414,-0.27575 -1.16989,0 -0.27574,0.27574 0.27575,0.89414 0,1.16989 -0.27574,0.27574 -0.89414,-0.27575 -1.16989,0 -0.61658,0.61658 -0.6467,1.64219 -1.16989,2.33977 -1.86745,2.48994 -6.43016,6.04302 -9.35911,7.01934 -0.73428,0.24476 -3.73775,0 -4.67955,0 -0.38996,0 -0.8211,0.17439 -1.16989,0 -0.49327,-0.24664 -0.77993,-0.77993 -1.16989,-1.16989 -1.16989,-0.77993 -2.21732,-1.78592 -3.50966,-2.33978 -1.47786,-0.63337 -3.13357,-0.72818 -4.67956,-1.16989 -5.96859,-1.70531 -1.89203,-1.38011 -10.529,-2.33978 -2.24283,-0.2492 -4.7407,0 -7.01933,0 -1.16989,0 -2.3557,-0.19232 -3.50967,0 -1.21639,0.20274 -2.33978,0.77993 -3.50966,1.16989 -1.16989,0.38997 -2.40669,0.6184 -3.50967,1.16989 -0.49327,0.24664 -0.67662,0.92326 -1.16989,1.16989 -0.34879,0.1744 -0.99549,-0.34879 -1.16989,0 -0.34879,0.69759 0,1.55985 0,2.33978 0,0.38996 0.27575,0.89414 0,1.16989 -1.94981,1.94981 -1.16989,-4.2896 -1.16989,2.33977" style="fill:none;fill-rule:evenodd;stroke:#000000;stroke-width:1px;stroke-linecap:butt;stroke-linejoin:miter;stroke-opacity:1" class="tOTHcHGj_15"></path>
    <path inkscape:connector-curvature="0" id="path3564" d="m 168.46398,452.74695 c 1.94982,0 3.93108,-0.34879 5.84945,0 2.42656,0.4412 4.63989,1.69084 7.01933,2.33978 1.91836,0.52319 3.98762,0.47171 5.84944,1.16989 1.31651,0.49369 2.2042,1.81759 3.50967,2.33978 0.72414,0.28966 1.61563,-0.28966 2.33978,0 6.78123,2.71249 -0.0657,2.59245 8.18922,3.50966 1.45594,0.16178 8.55106,-0.32965 10.529,0 1.21639,0.20274 2.30044,0.92805 3.50966,1.16989 1.85857,0.37172 16.21979,2.24488 17.54834,2.33978 4.27993,0.30571 9.58293,0 14.03866,0 5.92846,0 -1.39517,-0.34879 4.67956,1.16989 0.89147,0.22287 6.9788,0 8.18922,0 0.77992,0 1.64219,0.34879 2.33977,0 0.3488,-0.1744 -0.27574,-0.89414 0,-1.16989 0.99422,-0.99421 2.81208,-1.119 3.50967,-2.33978 0.98654,-1.72644 0.62363,-3.93752 1.16989,-5.84944 1.88311,-6.59088 0.25821,0.65347 2.33978,-3.50967 0.17439,-0.34879 -0.1744,-0.82109 0,-1.16989 0.24663,-0.49326 0.77992,-0.77992 1.16989,-1.16988 0.38996,-0.38997 0.77992,-0.77993 1.16989,-1.16989" style="fill:none;fill-rule:evenodd;stroke:#000000;stroke-width:1px;stroke-linecap:butt;stroke-linejoin:miter;stroke-opacity:1" class="tOTHcHGj_16"></path>
    <path inkscape:connector-curvature="0" id="path3566" d="m 384.89341,366.17519 c 1.89159,-8.5122 2.78795,-17.22537 4.67955,-25.73756 0.61586,-2.77137 1.165,-5.60471 2.33978,-8.18922 0.0101,-0.0223 6.88979,-9.17775 7.01933,-9.35911 0.81724,-1.14413 1.71098,-2.25207 2.33978,-3.50967 0.1744,-0.34879 -0.27575,-0.89414 0,-1.16988 0.61658,-0.61659 1.52029,-0.8719 2.33978,-1.16989 3.47677,-1.26429 7.11406,-2.08678 10.529,-3.50967 3.32106,-1.38378 5.26538,-3.51497 5.84944,-7.01933 0.19233,-1.15397 0,-2.33978 0,-3.50967 0,-0.38996 -0.38996,-1.16989 0,-1.16989 0.38996,0 0.27574,0.89415 0,1.16989 -0.27575,0.27575 -0.99549,-0.34879 -1.16989,0 -0.34879,0.69759 0.0861,1.56462 0,2.33978 -1.27085,11.43764 -0.42729,5.32256 -4.67955,16.37844 -0.88537,2.30195 -1.30624,4.78 -2.33978,7.01933 -1.31751,2.85461 -3.13819,5.44901 -4.67956,8.18923 -1.96835,3.4993 -4.1399,6.89623 -5.84944,10.52899 -1.41869,3.01472 -2.59434,6.15547 -3.50967,9.35912 -0.65165,2.28078 -0.83443,4.67112 -1.16989,7.01933 -0.0551,0.38604 0.1744,0.82109 0,1.16989 -0.24663,0.49326 -0.71102,0.86397 -1.16989,1.16989 -3.48722,2.32481 -6.78991,0.93477 -10.52899,0 z" style="fill:none;fill-rule:evenodd;stroke:#000000;stroke-width:1px;stroke-linecap:butt;stroke-linejoin:miter;stroke-opacity:1" class="tOTHcHGj_17"></path>
    <path inkscape:connector-curvature="0" id="path3568" d="m 62.004105,367.34507 c -1.949815,-1.55985 -3.899629,-3.1197 -5.849444,-4.67955 -1.169889,-1.16989 -2.253497,-2.43295 -3.509666,-3.50967 -11.27757,-9.66649 2.167364,3.33726 -9.35911,-8.18922 -1.169889,-1.16989 -2.591931,-2.13306 -3.509667,-3.50967 -1.517646,-2.27646 -2.167697,-10.89584 -2.339777,-11.69888 -1.764865,-8.23604 -2.897888,-7.25543 -3.509667,-15.20856 -0.209361,-2.7217 0.30145,-5.47617 0,-8.18922 -0.09629,-0.86665 -1.026535,-1.47966 -1.169888,-2.33978 -0.320548,-1.92328 0,-3.89963 0,-5.84944 0,-2.33978 0,-4.67955 0,-7.01933 0,-0.77993 -0.246635,-1.59988 0,-2.33978 0.275745,-0.82724 0.553303,-1.72319 1.169888,-2.33978 0.275746,-0.27574 0.821096,0.1744 1.169889,0 0.493269,-0.24663 0.779926,-0.77992 1.169889,-1.16989 0.389963,-0.38996 0.67662,-1.41652 1.169889,-1.16988 0.779926,0.38996 1.026535,1.47965 1.169888,2.33977 0.644293,3.86576 0.219373,7.89683 1.169889,11.69889 0.634462,2.53785 2.447228,4.62885 3.509667,7.01933 0.500838,1.12689 0.8708,2.31332 1.169888,3.50967 0.09458,0.37832 0,0.77993 0,1.16989 0,0.77992 0,1.55985 0,2.33978 0,3.1197 0,6.2394 0,9.35911 0,0.77992 -0.246634,1.59987 0,2.33977 0.275746,0.82724 0.737264,1.58269 1.169889,2.33978 1.128148,1.97426 2.188015,3.99913 3.509666,5.84944 0.641096,0.89754 1.559852,1.55986 2.339778,2.33978 0.389963,0.38997 0.923255,0.67662 1.169889,1.16989 1.657312,3.31463 1.169889,6.95549 1.169889,10.529" style="fill:none;fill-rule:evenodd;stroke:#000000;stroke-width:1px;stroke-linecap:butt;stroke-linejoin:miter;stroke-opacity:1" class="tOTHcHGj_18"></path>
    <path inkscape:connector-curvature="0" id="path3570" d="m 180.16287,42.115995 c -1.94981,0.779926 -4.02612,1.297879 -5.84944,2.339778 -3.66233,2.092761 -7.0966,4.567615 -10.529,7.019333 -7.31471,5.224795 -13.10378,8.89231 -18.71822,15.208554 -1.65891,1.866267 -3.29448,3.77183 -4.67956,5.849444 -0.21631,0.324468 -0.27574,0.894143 0,1.169888 0.27575,0.275746 0.77993,0 1.16989,0 1.16989,0 2.33978,0 3.50967,0 1.55985,0 3.24906,0.621954 4.67955,0 7.6785,-3.338477 14.81859,-7.799258 22.22789,-11.698887" style="fill:none;fill-rule:evenodd;stroke:#000000;stroke-width:1px;stroke-linecap:butt;stroke-linejoin:miter;stroke-opacity:1" class="tOTHcHGj_19"></path>
    <path inkscape:connector-curvature="0" id="path3572" d="m 228.12831,16.378443 c -1.55985,1.169888 -3.16407,2.282846 -4.67955,3.509666 -6.67502,5.403581 -13.16519,11.034584 -19.88811,16.378443 -8.48745,6.746427 -17.37426,12.988387 -25.73756,19.888109 -7.24439,5.976623 -14.90718,11.621128 -21.05799,18.71822 -4.11818,4.751745 -6.54705,10.754318 -9.35911,16.378443 -0.3488,0.697587 -0.3488,1.642191 0,2.339777 0.17439,0.348794 0.77992,0 1.16988,0 1.16989,0 2.33978,0 3.50967,0 8.16749,0 3.28438,0.697587 14.03867,-4.679555" style="fill:none;fill-rule:evenodd;stroke:#000000;stroke-width:1px;stroke-linecap:butt;stroke-linejoin:miter;stroke-opacity:1" class="tOTHcHGj_20"></path>
    <path inkscape:connector-curvature="0" id="path3574" d="m 237.48742,38.606329 c -1.16989,1.949815 -2.10483,4.06147 -3.50967,5.849444 -20.86936,26.561015 3.44726,-9.03359 -21.05799,26.907442 -6.3718,9.345308 -5.84945,6.222086 -5.84945,12.868776" style="fill:none;fill-rule:evenodd;stroke:#000000;stroke-width:1px;stroke-linecap:butt;stroke-linejoin:miter;stroke-opacity:1" class="tOTHcHGj_21"></path>
    <path inkscape:connector-curvature="0" id="path3576" d="m 265.56475,59.664327 c -11.57249,5.786246 -4.43377,0.954997 -15.20855,14.038665 -2.63524,3.199931 -5.88979,5.90996 -8.18922,9.359111 -0.89188,1.337818 -0.85457,3.10292 -1.16989,4.679555 -0.0765,0.38239 -0.3488,0.995492 0,1.169888 0.69758,0.348794 1.55985,0 2.33977,0" style="fill:none;fill-rule:evenodd;stroke:#000000;stroke-width:1px;stroke-linecap:butt;stroke-linejoin:miter;stroke-opacity:1" class="tOTHcHGj_22"></path>
    <path inkscape:connector-curvature="0" id="path3578" d="m 307.68075,59.664327 c -1.55985,0.779926 -3.26043,1.326117 -4.67956,2.339778 -6.16393,4.402807 -12.32157,8.717558 -16.37844,15.208554 -2.42476,3.879617 -2.04523,3.509666 0,3.509666" style="fill:none;fill-rule:evenodd;stroke:#000000;stroke-width:1px;stroke-linecap:butt;stroke-linejoin:miter;stroke-opacity:1" class="tOTHcHGj_23"></path>
    <path inkscape:connector-curvature="0" id="path3580" d="m 319.37963,69.023437 c -13.42145,10.737165 -8.16762,5.827846 -16.37844,14.038666" style="fill:none;fill-rule:evenodd;stroke:#000000;stroke-width:1px;stroke-linecap:butt;stroke-linejoin:miter;stroke-opacity:1" class="tOTHcHGj_24"></path>
    <path inkscape:connector-curvature="0" id="path3582" d="m 374.36441,81.892214 c -1.94982,0.389963 -4.07094,0.280636 -5.84945,1.169889 -0.93377,0.466888 -12.64898,10.39163 -12.86877,10.528998 -0.66138,0.41336 -1.55986,0 -2.33978,0" style="fill:none;fill-rule:evenodd;stroke:#000000;stroke-width:1px;stroke-linecap:butt;stroke-linejoin:miter;stroke-opacity:1" class="tOTHcHGj_25"></path>
  </g>
  <path style="fill:none;fill-rule:evenodd;stroke:#000000;stroke-width:1px;stroke-linecap:butt;stroke-linejoin:miter;stroke-opacity:1" d="m 99.440546,464.44584 c 0,22.61785 0,45.2357 0,67.85355 0,3.89963 0,7.79926 0,11.69889 0,3.1197 0.259077,6.25018 0,9.35911 -1.642789,19.71346 -1.169889,-12.86569 -1.169889,10.529" id="path3584" inkscape:connector-curvature="0" class="tOTHcHGj_26"></path>
  <path style="fill:none;fill-rule:evenodd;stroke:#000000;stroke-width:1px;stroke-linecap:butt;stroke-linejoin:miter;stroke-opacity:1" d="m 342.77741,463.27595 c 0,18.32826 0,36.65652 0,54.98478 0,3.89962 0,7.79925 0,11.69888 0,0.77993 0.12822,1.57047 0,2.33978 -0.26433,1.58598 -0.97046,3.08411 -1.16989,4.67956 -0.24184,1.93475 0,3.89963 0,5.84944 0,0.38996 0,0.77993 0,1.16989 0,0.38996 0.1744,0.82109 0,1.16989 -1.72138,3.44276 -1.16989,-1.816 -1.16989,3.50966" id="path3586" inkscape:connector-curvature="0" class="tOTHcHGj_27"></path>
<style>.tOTHcHGj_0{stroke-dasharray:131 133;stroke-dashoffset:132;}.start .tOTHcHGj_0{animation:tOTHcHGj_draw 1333ms linear 0ms forwards;}.tOTHcHGj_1{stroke-dasharray:1696 1698;stroke-dashoffset:1697;}.start .tOTHcHGj_1{animation:tOTHcHGj_draw 1333ms linear 24ms forwards;}.tOTHcHGj_2{stroke-dasharray:160 162;stroke-dashoffset:161;}.start .tOTHcHGj_2{animation:tOTHcHGj_draw 1333ms linear 49ms forwards;}.tOTHcHGj_3{stroke-dasharray:129 131;stroke-dashoffset:130;}.start .tOTHcHGj_3{animation:tOTHcHGj_draw 1333ms linear 74ms forwards;}.tOTHcHGj_4{stroke-dasharray:37 39;stroke-dashoffset:38;}.start .tOTHcHGj_4{animation:tOTHcHGj_draw 1333ms linear 98ms forwards;}.tOTHcHGj_5{stroke-dasharray:43 45;stroke-dashoffset:44;}.start .tOTHcHGj_5{animation:tOTHcHGj_draw 1333ms linear 123ms forwards;}.tOTHcHGj_6{stroke-dasharray:27 29;stroke-dashoffset:28;}.start .tOTHcHGj_6{animation:tOTHcHGj_draw 1333ms linear 148ms forwards;}.tOTHcHGj_7{stroke-dasharray:22 24;stroke-dashoffset:23;}.start .tOTHcHGj_7{animation:tOTHcHGj_draw 1333ms linear 172ms forwards;}.tOTHcHGj_8{stroke-dasharray:29 31;stroke-dashoffset:30;}.start .tOTHcHGj_8{animation:tOTHcHGj_draw 1333ms linear 197ms forwards;}.tOTHcHGj_9{stroke-dasharray:28 30;stroke-dashoffset:29;}.start .tOTHcHGj_9{animation:tOTHcHGj_draw 1333ms linear 222ms forwards;}.tOTHcHGj_10{stroke-dasharray:14 16;stroke-dashoffset:15;}.start .tOTHcHGj_10{animation:tOTHcHGj_draw 1333ms linear 246ms forwards;}.tOTHcHGj_11{stroke-dasharray:17 19;stroke-dashoffset:18;}.start .tOTHcHGj_11{animation:tOTHcHGj_draw 1333ms linear 271ms forwards;}.tOTHcHGj_12{stroke-dasharray:123 125;stroke-dashoffset:124;}.start .tOTHcHGj_12{animation:tOTHcHGj_draw 1333ms linear 296ms forwards;}.tOTHcHGj_13{stroke-dasharray:256 258;stroke-dashoffset:257;}.start .tOTHcHGj_13{animation:tOTHcHGj_draw 1333ms linear 320ms forwards;}.tOTHcHGj_14{stroke-dasharray:102 104;stroke-dashoffset:103;}.start .tOTHcHGj_14{animation:tOTHcHGj_draw 1333ms linear 345ms forwards;}.tOTHcHGj_15{stroke-dasharray:130 132;stroke-dashoffset:131;}.start .tOTHcHGj_15{animation:tOTHcHGj_draw 1333ms linear 370ms forwards;}.tOTHcHGj_16{stroke-dasharray:120 122;stroke-dashoffset:121;}.start .tOTHcHGj_16{animation:tOTHcHGj_draw 1333ms linear 395ms forwards;}.tOTHcHGj_17{stroke-dasharray:162 164;stroke-dashoffset:163;}.start .tOTHcHGj_17{animation:tOTHcHGj_draw 1333ms linear 419ms forwards;}.tOTHcHGj_18{stroke-dasharray:160 162;stroke-dashoffset:161;}.start .tOTHcHGj_18{animation:tOTHcHGj_draw 1333ms linear 444ms forwards;}.tOTHcHGj_19{stroke-dasharray:87 89;stroke-dashoffset:88;}.start .tOTHcHGj_19{animation:tOTHcHGj_draw 1333ms linear 469ms forwards;}.tOTHcHGj_20{stroke-dasharray:134 136;stroke-dashoffset:135;}.start .tOTHcHGj_20{animation:tOTHcHGj_draw 1333ms linear 493ms forwards;}.tOTHcHGj_21{stroke-dasharray:59 61;stroke-dashoffset:60;}.start .tOTHcHGj_21{animation:tOTHcHGj_draw 1333ms linear 518ms forwards;}.tOTHcHGj_22{stroke-dasharray:43 45;stroke-dashoffset:44;}.start .tOTHcHGj_22{animation:tOTHcHGj_draw 1333ms linear 543ms forwards;}.tOTHcHGj_23{stroke-dasharray:34 36;stroke-dashoffset:35;}.start .tOTHcHGj_23{animation:tOTHcHGj_draw 1333ms linear 567ms forwards;}.tOTHcHGj_24{stroke-dasharray:22 24;stroke-dashoffset:23;}.start .tOTHcHGj_24{animation:tOTHcHGj_draw 1333ms linear 592ms forwards;}.tOTHcHGj_25{stroke-dasharray:26 28;stroke-dashoffset:27;}.start .tOTHcHGj_25{animation:tOTHcHGj_draw 1333ms linear 617ms forwards;}.tOTHcHGj_26{stroke-dasharray:110 112;stroke-dashoffset:111;}.start .tOTHcHGj_26{animation:tOTHcHGj_draw 1333ms linear 641ms forwards;}.tOTHcHGj_27{stroke-dasharray:87 89;stroke-dashoffset:88;}.start .tOTHcHGj_27{animation:tOTHcHGj_draw 1333ms linear 666ms forwards;}@keyframes tOTHcHGj_draw{100%{stroke-dashoffset:0;}}@keyframes tOTHcHGj_fade{0%{stroke-opacity:1;}93.54838709677419%{stroke-opacity:1;}100%{stroke-opacity:0;}}</style></svg>
